<?xml version="1.0" encoding="UTF-8"?>
<svg id="_레이어_1" data-name="레이어_1" xmlns="http://www.w3.org/2000/svg" version="1.1" viewBox="0 0 70 60">
  <!-- Generator: Adobe Illustrator 29.8.1, SVG Export Plug-In . SVG Version: 2.1.1 Build 2)  -->
  <path d="M59.09,6.41c7.36,2.43,10.91,7.62,10.91,15.7,0,16.03-14.32,33.97-29.56,33.97-4.66,0-7.75-1.58-10.58-5.32l-.46-.59c-4.93,4.47-10.58,7.1-16.88,7.1C3.05,57.27-.36,51.48.03,45.31c0-.66.53-.99.99-.99.53,0,.99.33.79,1.05-1.38,5.45,2.37,10.84,10.12,10.84,19.05,0,25.16-32.52,39.75-46.65,1.12-1.05,2.23-1.97,3.42-2.82-1.84-.39-3.94-.66-6.31-.66-9.86,0-19.51,3.61-26.15,9.79-5.45,5.06-8.8,11.76-8.8,17.41,0,4.8,2.37,7.75,6.04,7.75,4.66,0,9.2-4.53,11.76-11.56.2-.53.66-.72,1.25-.59.53.13.79.59.53,1.12-3.61,7.88-8.48,12.22-14.26,12.22-5.45,0-9-3.81-9-9.79s3.22-12.02,8.74-17.21c7.29-6.83,17.02-10.31,28.71-10.31,3.35,0,6.31.26,8.94.85,2.96-1.77,6.18-2.83,9.79-3.02,1.12-.07.92,1.58,0,1.45-2.43-.2-4.8.46-7.23,2.23ZM39.65,54.9c11.96,0,25.62-18.53,25.62-34.3,0-6.7-2.5-11.04-7.56-13.07-4.14,3.68-7.03,8.8-9.66,13.6-5.45,10.31-9.33,18.53-15.04,25.29-.85,1.05-1.84,2.04-2.76,2.96,2.04,3.48,5.32,5.52,9.39,5.52Z"/>
</svg>